<svg xmlns="http://www.w3.org/2000/svg" width="1200" height="630" viewBox="0 0 1200 630">
  <defs>
    <linearGradient id="bg" x1="0%" y1="0%" x2="100%" y2="100%">
      <stop offset="0%" style="stop-color:#0A1628"/>
      <stop offset="50%" style="stop-color:#132337"/>
      <stop offset="100%" style="stop-color:#1A2F4A"/>
    </linearGradient>
    <linearGradient id="accent" x1="0%" y1="0%" x2="100%" y2="0%">
      <stop offset="0%" style="stop-color:#2DD4BF"/>
      <stop offset="100%" style="stop-color:#8B5CF6"/>
    </linearGradient>
    <filter id="shadow" x="-20%" y="-20%" width="140%" height="140%">
      <feDropShadow dx="0" dy="8" stdDeviation="16" flood-color="#000000" flood-opacity="0.3"/>
    </filter>
  </defs>

  <rect width="1200" height="630" fill="url(#bg)"/>

  <circle cx="1050" cy="80" r="180" fill="#8B5CF6" opacity="0.15"/>
  <circle cx="120" cy="520" r="150" fill="#2DD4BF" opacity="0.12"/>

  <rect x="80" y="80" width="1040" height="470" rx="28" fill="#FFFFFF" opacity="0.04" stroke="#FFFFFF" stroke-opacity="0.08"/>

  <g transform="translate(120, 160)">
    <rect x="0" y="0" width="72" height="72" rx="16" fill="url(#accent)" filter="url(#shadow)"/>
    <text x="36" y="48" text-anchor="middle" fill="#FFFFFF" font-family="Arial, sans-serif" font-size="32" font-weight="bold">S</text>
  </g>

  <text x="220" y="195" fill="#2DD4BF" font-family="Arial, sans-serif" font-size="22" font-weight="600" letter-spacing="2">SOTONG APPS LAB</text>

  <text x="120" y="290" fill="#FFFFFF" font-family="Arial, sans-serif" font-size="56" font-weight="800">Śµč´ q</text>

  <text x="120" y="350" fill="#94A3B8" font-family="Arial, sans-serif" font-size="28">AI App Portfolio</text>

  <rect x="120" y="400" width="320" height="6" rx="3" fill="url(#accent)"/>

  <g transform="translate(120, 440)">
    <rect x="0" y="0" width="140" height="44" rx="22" fill="#FFFFFF" opacity="0.08" stroke="#FFFFFF" stroke-opacity="0.15"/>
    <text x="70" y="28" text-anchor="middle" fill="#FFFFFF" font-family="Arial, sans-serif" font-size="14" opacity="0.9">Flutter</text>

    <rect x="160" y="0" width="100" height="44" rx="22" fill="#FFFFFF" opacity="0.08" stroke="#FFFFFF" stroke-opacity="0.15"/>
    <text x="210" y="28" text-anchor="middle" fill="#FFFFFF" font-family="Arial, sans-serif" font-size="14" opacity="0.9">AI App</text>

    <rect x="280" y="0" width="120" height="44" rx="22" fill="#FFFFFF" opacity="0.08" stroke="#FFFFFF" stroke-opacity="0.15"/>
    <text x="340" y="28" text-anchor="middle" fill="#FFFFFF" font-family="Arial, sans-serif" font-size="14" opacity="0.9">Android</text>
  </g>

  <g transform="translate(780, 200)">
    <rect x="0" y="0" width="300" height="180" rx="20" fill="#FFFFFF" opacity="0.06" stroke="#2DD4BF" stroke-opacity="0.3"/>
    <rect x="24" y="24" width="80" height="80" rx="16" fill="url(#accent)" opacity="0.8"/>
    <rect x="120" y="32" width="156" height="16" rx="8" fill="#FFFFFF" opacity="0.2"/>
    <rect x="120" y="60" width="120" height="12" rx="6" fill="#FFFFFF" opacity="0.12"/>
    <rect x="24" y="120" width="252" height="12" rx="6" fill="#FFFFFF" opacity="0.1"/>
    <rect x="24" y="144" width="200" height="12" rx="6" fill="#FFFFFF" opacity="0.08"/>
  </g>
</svg>
